<?xml version="1.0" encoding="UTF-8"?>
<svg width="98px" height="98px" viewBox="0 0 98 98" version="1.1" xmlns="http://www.w3.org/2000/svg" xmlns:xlink="http://www.w3.org/1999/xlink">
    <title>Group 11</title>
    <defs>
        <linearGradient x1="21.0784694%" y1="100%" x2="80.5284637%" y2="0%" id="linearGradient-1">
            <stop stop-color="#FF3CAC" offset="0%"></stop>
            <stop stop-color="#21D4FD" offset="100%"></stop>
        </linearGradient>
    </defs>
    <g id="Page-1" stroke="none" stroke-width="1" fill="none" fill-rule="evenodd">
        <g id="Group-11">
            <path d="M73.509751,35.833161 C72.156861,35.833161 71.059751,36.929781 71.059751,38.283161 C71.059751,39.636051 72.156861,40.733161 73.509751,40.733161 C74.863131,40.733161 75.959751,39.636051 75.959751,38.283161 C75.959751,36.929781 74.863131,35.833161 73.509751,35.833161" id="Fill-1" fill="#6EA0E1"></path>
            <g id="Group-5" fill="url(#linearGradient-1)">
                <path d="M73.509751,45.679123 C69.425111,45.679123 66.113691,42.367703 66.113691,38.283063 C66.113691,34.197443 69.425111,30.887003 73.509751,30.887003 C77.594881,30.887003 80.906301,34.197443 80.906301,38.283063 C80.906301,42.367703 77.594881,45.679123 73.509751,45.679123 M71.288091,69.496553 C65.499721,75.881253 57.275071,79.550863 48.724081,79.565073 L48.671651,79.565073 C40.015801,79.563603 31.724511,75.856263 25.922911,69.391203 C20.048791,62.843823 17.337621,54.396223 18.292631,45.604153 C19.811631,31.596033 31.080161,20.256943 45.085831,18.642393 C46.278001,18.505193 47.484871,18.435123 48.672631,18.435123 C55.454231,18.435123 61.890381,20.633753 67.285281,24.791893 C67.625341,25.053553 67.830161,25.452413 67.845841,25.884593 C67.862991,26.318733 67.686591,26.733273 67.364661,27.022373 L64.121351,29.929543 C63.774431,30.240693 63.328531,30.411703 62.863521,30.411703 C62.472991,30.411703 62.094711,30.292633 61.770821,30.068213 C57.887081,27.369293 53.358011,25.942903 48.672631,25.942903 C42.093891,25.953683 35.837081,28.768733 31.467751,33.665303 C27.042561,38.625083 25.016901,45.015663 25.765131,51.661043 C26.951421,62.211723 35.476931,70.727923 46.035941,71.910293 C46.912551,72.007803 47.799451,72.058273 48.672631,72.058273 C54.839771,72.058273 60.647251,69.624443 65.024421,65.206113 C65.387021,64.839593 65.867221,64.636733 66.377311,64.636733 C66.744321,64.636733 67.101041,64.744533 67.408761,64.946903 L71.008301,67.310663 C71.362571,67.543413 71.597281,67.919733 71.650691,68.343093 C71.704101,68.764003 71.572291,69.184913 71.288091,69.496553 M48.999951,-0.000147 C21.938231,-0.000147 -4.9e-05,21.938133 -4.9e-05,48.999853 C-4.9e-05,76.062063 21.938231,97.999853 48.999951,97.999853 C76.062161,97.999853 97.999951,76.062063 97.999951,48.999853 C97.999951,21.938133 76.062161,-0.000147 48.999951,-0.000147" id="Fill-3"></path>
            </g>
        </g>
    </g>
</svg>