<svg id="Layer_1" data-name="Layer 1" xmlns="http://www.w3.org/2000/svg" xmlns:xlink="http://www.w3.org/1999/xlink" viewBox="0 0 202 75.32"><defs><style>.cls-1{fill:#f4ebe0;}.cls-1,.cls-2,.cls-3,.cls-6,.cls-7{fill-rule:evenodd;}.cls-2{fill:url(#linear-gradient);}.cls-3{fill:url(#linear-gradient-2);}.cls-4{fill:none;}.cls-5,.cls-6{fill:#0f1e6c;}.cls-7{fill:url(#linear-gradient-3);}</style><linearGradient id="linear-gradient" x1="6.62" y1="33.95" x2="45.73" y2="-4.71" gradientUnits="userSpaceOnUse"><stop offset="0" stop-color="#3ac2f3"/><stop offset="1" stop-color="#e84cb4"/></linearGradient><linearGradient id="linear-gradient-2" x1="18.07" y1="47.17" x2="58.06" y2="7.65" xlink:href="#linear-gradient"/><linearGradient id="linear-gradient-3" x1="20.11" y1="49.25" x2="60.11" y2="9.71" xlink:href="#linear-gradient"/></defs><title>CelSwap-logo</title><path class="cls-1" d="M202,60.32a15,15,0,0,1-15,15H15a15,15,0,0,1-2.12-29.85A26.49,26.49,0,0,0,31.35,53h0a26.48,26.48,0,0,0,18.55-7.68H187A15,15,0,0,1,202,60.32Z"/><path class="cls-2" d="M46,1.83V11a1.83,1.83,0,0,1-1.57,1.81L35,14.2l-.28,0a1.84,1.84,0,0,1-.26-3.66L38.35,10a16.65,16.65,0,0,0-7.74-1.9A17,17,0,0,0,18,13.78a16.72,16.72,0,0,0-4.28,11.85,6,6,0,0,0-1.27-.14,5.88,5.88,0,0,0-4.17,1.76,23,23,0,0,1,0-4.69A22.56,22.56,0,0,1,28,2.73a23.19,23.19,0,0,1,2.63-.15A22.13,22.13,0,0,1,42.35,5.91V1.83a1.84,1.84,0,0,1,3.67,0Z"/><path class="cls-3" d="M47.77,40l-2.64-1.74a1.39,1.39,0,0,0-1.76.19,16.82,16.82,0,0,1-12,5,18,18,0,0,1-1.94-.11,17,17,0,0,1-13-8.88L21,35.92a1.75,1.75,0,0,0,.55.08,1.83,1.83,0,0,0,.55-3.58l-7.26-2.28L13,29.57a1.7,1.7,0,0,0-.55-.08,1.82,1.82,0,0,0-1.65,1l-1,2.15-2.94,6.1a1.82,1.82,0,0,0,.85,2.44,1.77,1.77,0,0,0,.8.19,1.83,1.83,0,0,0,1.66-1l1.51-3.12a22.22,22.22,0,0,0,3,4.27,22,22,0,0,0,4.43,3.8A22.44,22.44,0,0,0,31.35,49h0a22.4,22.4,0,0,0,12.23-3.68A22.14,22.14,0,0,0,48,41.59a1.07,1.07,0,0,0,.26-.84A1,1,0,0,0,47.77,40Z"/><path class="cls-4" d="M135.22,60a1.25,1.25,0,0,0-.17.2,4.87,4.87,0,0,1-.48.5,8.82,8.82,0,0,0-.57,1.33,3,3,0,0,0-.18,1,2.8,2.8,0,0,0,0,.4.73.73,0,0,0,.4.12,4.37,4.37,0,0,0,2.86-3.49c0-.36-.07-.68-.11-1a.57.57,0,0,0-.23-.42l-.53.2.06.07V59c0,.15,0,.37,0,.65a1,1,0,0,1-.29.74.87.87,0,0,1-.3.14C135.49,60.54,135.32,60.38,135.22,60Z"/><path class="cls-4" d="M38.1,60a1.25,1.25,0,0,0-.17.2,3.94,3.94,0,0,1-.48.5l-.21.46a6.74,6.74,0,0,0-.36.87,3,3,0,0,0-.18,1,2.8,2.8,0,0,0,0,.4.73.73,0,0,0,.4.12A4.37,4.37,0,0,0,40,60.05c0-.36-.07-.68-.11-1a.57.57,0,0,0-.23-.42l-.53.2.06.07V59c0,.15,0,.37,0,.65a1,1,0,0,1-.29.74.87.87,0,0,1-.3.14C38.37,60.54,38.2,60.38,38.1,60Z"/><path class="cls-4" d="M109.68,60l-.17.2a3.94,3.94,0,0,1-.48.5,8.82,8.82,0,0,0-.57,1.33,3,3,0,0,0-.18,1,2.8,2.8,0,0,0,0,.4.73.73,0,0,0,.4.12,4.4,4.4,0,0,0,2.87-3.49q-.06-.54-.12-1a.59.59,0,0,0-.22-.42l-.54.2.06.07V59c0,.15,0,.37,0,.65a1,1,0,0,1-.28.74,1,1,0,0,1-.31.14C110,60.54,109.78,60.38,109.68,60Z"/><path class="cls-5" d="M68.45,59.49s0-.09.2-.39a1.16,1.16,0,0,0,.19-.55,1,1,0,0,0-.07-.35l0-.06,0,0a.86.86,0,0,0-.64-.18L68,58l0,.08a9.91,9.91,0,0,0-1.15,3c0,.19-.06.52-.14,1a5.29,5.29,0,0,0-.13,1.05,2.41,2.41,0,0,0,.62,1.64l.07.09.11,0a3.74,3.74,0,0,0,2-.89c.55-.59.84-.91,1-1.08v0a.82.82,0,0,0,.09.3c.2.68.62.83.93.83a2.09,2.09,0,0,0,1-.33l0,0,.61-.57a1.7,1.7,0,0,0,.53-1l0-.13-.48-.32-.11.1c-.31.26-.54.47-.7.63l-.07.05-.15.09-.19.14a1.44,1.44,0,0,1-.36.15.42.42,0,0,1-.06-.2l-.06-.54a3.8,3.8,0,0,1,.64-2l0-.09a3.82,3.82,0,0,1,.27-.69,2.08,2.08,0,0,0,.24-.86,1.26,1.26,0,0,0-.07-.41.49.49,0,0,0-.29-.32.54.54,0,0,0-.47.1l-.06.06A13,13,0,0,0,70.61,60a3.24,3.24,0,0,1-.71,1.4,12.25,12.25,0,0,0-1,1.39c-.33.25-.53.41-.62.49a1.85,1.85,0,0,1-.58.22,3.79,3.79,0,0,1,0-.6c0-.24,0-.53,0-.82C68,61,68.23,60.13,68.45,59.49Z"/><path class="cls-5" d="M128.8,60.81a4.25,4.25,0,0,1,.47-1l0-.07a1.08,1.08,0,0,1,.32-.45c.24-.22.4-.36.47-.44l.05,0a.42.42,0,0,0,.67-.09.48.48,0,0,0,.06-.42,1.19,1.19,0,0,0-1-.84h-.07l-.07,0c-1.2.67-2,2.14-2.5,4.4a2.34,2.34,0,0,0,.9,2.14,2.63,2.63,0,0,0,1.1.24,2.89,2.89,0,0,0,1.9-.69,5.17,5.17,0,0,0,.46-.41,1,1,0,0,0,.38-.78v-.15l-.14,0a.56.56,0,0,0-.58.09,6.33,6.33,0,0,1-2.13.85.62.62,0,0,1-.64-.52v-1a1.77,1.77,0,0,1,.31-.88Z"/><path class="cls-5" d="M180.76,56.4h.29l0-.14a1.1,1.1,0,0,1,0-.11l.06,0a.6.6,0,0,0,.2-.49l0-.08a1,1,0,0,0-.45-.45l-.07,0-.07,0a.41.41,0,0,1-.18,0,1.91,1.91,0,0,0-.56,0,.57.57,0,0,0-.35.62c0,.3.24.65,1,.65h.09Z"/><path class="cls-5" d="M151.56,64v.11l.1.07a.71.71,0,0,0,.42.14l.21,0,.09,0c.07,0,.12,0,.22-.11l.08.16.18-.36a4.67,4.67,0,0,1,1-1.26,10.39,10.39,0,0,0,1.28-1.42,8,8,0,0,0,1-1.11,6,6,0,0,1,.63-.74c0,.07,0,.17,0,.31a3.21,3.21,0,0,1,0,.39,1.63,1.63,0,0,1-.09.45c-.19.63-.3,1-.35,1.28a11.73,11.73,0,0,0-.14,1.34s0,.09-.06.39a1,1,0,0,0,0,.47l0,.12.12,0c.29.06.65-.12,1.13-.54a5.6,5.6,0,0,0,.74-.82c.73-.89,1.29-1.58,1.67-2.07.19-.21.47-.54.84-1a2.79,2.79,0,0,1,.37-.4c-.1.3-.21.66-.36,1.1a17.5,17.5,0,0,0-.51,1.9c0,.16,0,.39,0,.68s0,.55,0,.72a1.75,1.75,0,0,0,.55,1.4l.09.08.12,0,.35-.14h.06l.05,0a.72.72,0,0,0,.31-.52l0-.15-.14-.06-.17-.07a17,17,0,0,1,.39-2.8,14.16,14.16,0,0,1,.53-1.63,4.56,4.56,0,0,0,.28-1.8v0a.66.66,0,0,0-.64-.47h-.05l0,0a9.42,9.42,0,0,0-.94.59l-1.07,1a9.7,9.7,0,0,0-1.3,1.66,14.46,14.46,0,0,1-.9,1.22c.19-.8.36-1.42.48-1.84l0,0v0a4.11,4.11,0,0,1,0-.57l0-.36c0-.13,0-.23,0-.28a1.13,1.13,0,0,0-.71-1.18l-.1,0-.08.06a11,11,0,0,0-2.21,2c-.63.73-1.15,1.34-1.54,1.81a2.4,2.4,0,0,1,0-.24,4.7,4.7,0,0,0,.14-.83,3.77,3.77,0,0,0,.36-1.52,1.94,1.94,0,0,0-.27-1.08l0,0,0,0a.93.93,0,0,0-1.06.12l-.11.09.06.13a3.63,3.63,0,0,1,.21.88,12.62,12.62,0,0,1-.6,2.46A13.3,13.3,0,0,0,151.56,64Z"/><path class="cls-5" d="M139.28,64v.11l.09.07a.73.73,0,0,0,.42.14l.21,0,.09,0a.35.35,0,0,0,.23-.12l.08.16.18-.35a4.35,4.35,0,0,1,1-1.26,10.39,10.39,0,0,0,1.28-1.42,8.11,8.11,0,0,0,1-1.11,6,6,0,0,1,.63-.74c0,.07,0,.17,0,.31s0,.31,0,.39a1.63,1.63,0,0,1-.09.45,13.27,13.27,0,0,0-.35,1.28,13.34,13.34,0,0,0-.15,1.34,3,3,0,0,1,0,.39,1.22,1.22,0,0,0,0,.47l0,.12.12,0c.28.06.65-.12,1.13-.54a6.6,6.6,0,0,0,.74-.82c.72-.89,1.28-1.58,1.66-2.07.2-.21.48-.54.85-1a2.71,2.71,0,0,1,.36-.4c-.09.3-.21.67-.35,1.1a17.87,17.87,0,0,0-.52,1.9c0,.16,0,.39,0,.68s-.05.55-.05.72a1.76,1.76,0,0,0,.56,1.4l.09.08.11,0,.35-.14H149l0,0a.69.69,0,0,0,.31-.52l0-.15-.14-.06-.17-.07a17.81,17.81,0,0,1,.38-2.8c0-.09.11-.41.54-1.63a4.53,4.53,0,0,0,.27-1.8v0a.64.64,0,0,0-.63-.47h-.05l0,0c-.46.27-.76.46-.94.59l-1.07,1a9.7,9.7,0,0,0-1.3,1.66A12.47,12.47,0,0,1,145.3,62c.2-.79.36-1.41.49-1.84v-.08a2.93,2.93,0,0,1,0-.57c0-.33,0-.55,0-.64a1.13,1.13,0,0,0-.71-1.18l-.1,0-.09.06a11,11,0,0,0-2.2,2c-.64.74-1.16,1.34-1.55,1.81,0-.08,0-.15,0-.24a5.88,5.88,0,0,0,.14-.83,3.77,3.77,0,0,0,.36-1.52,1.84,1.84,0,0,0-.28-1.08l0,0,0,0a.93.93,0,0,0-1.06.12l-.11.09.05.13a2.89,2.89,0,0,1,.21.88,12.07,12.07,0,0,1-.6,2.46A14.13,14.13,0,0,0,139.28,64Z"/><path class="cls-5" d="M113.75,64.07l0,.06c.16.35.43.47.67.32l0,.08.16,0a.81.81,0,0,0,.54-.71c0-.3,0-.52,0-.65a12.37,12.37,0,0,1,.49-1.25,1.46,1.46,0,0,0,.22-.54A1.35,1.35,0,0,1,116,61h.09l0-.12a2.48,2.48,0,0,1,.53-.86c.24-.27.48-.54.75-.81A3.84,3.84,0,0,1,119,58a1,1,0,0,1,.07.29,2.67,2.67,0,0,0,.14.88l.06.13.57-.08,0-.15a9.1,9.1,0,0,0,.16-1.17,1.53,1.53,0,0,0-.3-.74l-.07-.06a1.52,1.52,0,0,0-.82-.14,2.65,2.65,0,0,0-1.68.88l-.81.9a.75.75,0,0,1,0-.16,1.09,1.09,0,0,0,.06-.31.46.46,0,0,0-.19-.35,1,1,0,0,0-.75-.09.5.5,0,0,0-.45.48.88.88,0,0,0,.08.32c-.73,2.84-1.19,4.6-1.4,5.36Z"/><path class="cls-5" d="M111.67,57.76l0,0a2.37,2.37,0,0,0-1-.05h-.09l0,.07a.58.58,0,0,0-.14.27c-.32.3-.43.3-.43.3h-.08a1.37,1.37,0,0,0-.93.61,2.06,2.06,0,0,0-.58.62,3.53,3.53,0,0,1-.4.61l0,.06c-.23.58-.41,1-.53,1.31A6.26,6.26,0,0,0,107,63v.06a2.12,2.12,0,0,0,1.12,1.63l0,0a3.56,3.56,0,0,0,.47.05h.23a2.49,2.49,0,0,0,1.89-1,6.51,6.51,0,0,0,.9-.92s.08-.09.22-.44a.41.41,0,0,1,.17-.22l.08,0,0-.09a9.19,9.19,0,0,0,.34-1.37,4.84,4.84,0,0,0,0-.74A2.43,2.43,0,0,0,111.67,57.76Zm-3,5.78a.73.73,0,0,1-.4-.12,2.8,2.8,0,0,1,0-.4,3,3,0,0,1,.18-1,8.82,8.82,0,0,1,.57-1.33,3.94,3.94,0,0,0,.48-.5l.17-.2c.1.36.27.52.54.51a1,1,0,0,0,.31-.14,1,1,0,0,0,.28-.74c0-.28,0-.5,0-.65v-.06l-.06-.07.54-.2a.59.59,0,0,1,.22.42q.06.42.12,1A4.4,4.4,0,0,1,108.71,63.54Z"/><path class="cls-5" d="M173,58.23a.62.62,0,0,0-1,0l0,0v.06a16.8,16.8,0,0,1-.48,2.31q-.41,1.44-.63,2.31A1,1,0,0,0,171.1,64l.05,0A1.13,1.13,0,0,0,172,64l.06,0a13.65,13.65,0,0,0,1.67-2.13,10.68,10.68,0,0,1,1.29-1.65l-.18.91a8.13,8.13,0,0,0-.19,1.51,3.37,3.37,0,0,0,.41,1.7l.05,0a1,1,0,0,0,.63.23,1.32,1.32,0,0,0,.42-.07l.27-.08-.16-.22a2.53,2.53,0,0,1-.43-1.45,6.67,6.67,0,0,1,.16-1.27c.08-.43.17-.87.27-1.35a2.83,2.83,0,0,1,0-.41l0-.12a2,2,0,0,0,0-.36.8.8,0,0,0-.87-.91h-.06l0,0a7.82,7.82,0,0,0-1.72,1.54c-.19.22-.57.73-1.15,1.54l.63-2.58A.72.72,0,0,0,173,58.23Z"/><path class="cls-5" d="M165.57,59.49s0-.09.2-.39a1.16,1.16,0,0,0,.19-.55,1,1,0,0,0-.07-.35l0-.06-.05,0a.87.87,0,0,0-.64-.18l-.09,0L165,58a9.91,9.91,0,0,0-1.15,3c0,.19-.06.52-.14,1a6.17,6.17,0,0,0-.13,1.05,2.41,2.41,0,0,0,.62,1.64l.07.09.11,0a3.81,3.81,0,0,0,2-.89c.54-.59.83-.91,1-1.08v0a1.21,1.21,0,0,0,.1.31c.2.68.62.83.93.83a2.09,2.09,0,0,0,1-.33l0,0c.23-.23.44-.42.61-.57a1.73,1.73,0,0,0,.54-1l0-.13-.48-.32-.11.1c-.32.27-.54.47-.7.63l-.07.05-.34.23a1.44,1.44,0,0,1-.36.15.42.42,0,0,1-.06-.2l-.06-.54a3.8,3.8,0,0,1,.64-2l0-.09a3.82,3.82,0,0,1,.27-.69,2.08,2.08,0,0,0,.24-.86,1.53,1.53,0,0,0-.07-.41.49.49,0,0,0-.29-.32.54.54,0,0,0-.47.1l-.07.06A13.42,13.42,0,0,0,167.73,60a3.24,3.24,0,0,1-.71,1.4,13.63,13.63,0,0,0-1,1.38,7.47,7.47,0,0,0-.62.5h0a1.76,1.76,0,0,1-.58.22,3.89,3.89,0,0,1,0-.6c0-.24,0-.53,0-.82C165.1,61,165.36,60.13,165.57,59.49Z"/><path class="cls-5" d="M186.86,54.52l0-.05c-.19-.32-.41-.48-.63-.48a.6.6,0,0,0-.51.29l0,.07a14.36,14.36,0,0,1-1.25,3.38c-.26,0-.52.09-.8.12a1.9,1.9,0,0,0-.87.39c-.35.21-.54.41-.58.62V59c.16.53.4.79.73.79H183l0-.07a1.5,1.5,0,0,1,.76-.55,5,5,0,0,1-.35.83,7,7,0,0,0-.58,2.73,2.9,2.9,0,0,0,.43,1.52,1.28,1.28,0,0,0,1,.41,1.3,1.3,0,0,0,.37,0,2.55,2.55,0,0,0,2-1.6l.09-.28-.29,0a2.11,2.11,0,0,0-1,.35,1.79,1.79,0,0,1-.67.3,1.52,1.52,0,0,1-.43.07c-.09,0-.2,0-.22-.07a1.25,1.25,0,0,1-.06-.4,8.64,8.64,0,0,1,1.19-4.05,2.26,2.26,0,0,1,.71,0,9.11,9.11,0,0,0,1.18,0h.2l0-.66-.06-.06a1.81,1.81,0,0,0-.9-.43l-.52-.06a7.24,7.24,0,0,0,1-3.09Z"/><path class="cls-5" d="M192.41,58h-.06l-.52.26-.07,0,0,.08c-.67,2.1-1.19,3.59-1.56,4.43a2.73,2.73,0,0,1-1-1.82c-.17-.81-.3-1.63-.4-2.42a1.2,1.2,0,0,0-.27-.64.71.71,0,0,0-.55-.36.33.33,0,0,0-.34.36,3,3,0,0,0,0,.37v0h0c.17,1.17.27,2,.3,2.48a4.33,4.33,0,0,0,1.36,2.73.48.48,0,0,1,.2.25,1.94,1.94,0,0,1,0,.2,16.21,16.21,0,0,1-1.27,3.13,11.08,11.08,0,0,1-2,2.91l-.42.41.58-.06a4.26,4.26,0,0,0,.66-.1,1.57,1.57,0,0,0,.45-.34l1-.94a29,29,0,0,0,1.7-2.85c.06-.1.23-.5,1-2.8.6-1.69,1-2.8,1.28-3.31a6.21,6.21,0,0,0,.54-1.48l0-.11-.28-.26A.49.49,0,0,0,192.41,58Z"/><path class="cls-5" d="M179.13,57.45l0,0a14.35,14.35,0,0,0-.56,1.36,14.57,14.57,0,0,0-.63,4.24,6.17,6.17,0,0,0,0,.75v0l0,.05a1.45,1.45,0,0,0,.95.68h0a2.66,2.66,0,0,0,1.23-.49l.06,0c.27-.37.47-.65.59-.85a3,3,0,0,0,.79-1.54l.27-.91-1,1.24a2.8,2.8,0,0,0-.77.63,4.14,4.14,0,0,1-.61.58,1.22,1.22,0,0,0-.27.21l0,0-.06-.1h0a5.87,5.87,0,0,1,.06-1.62l.44-2.08a7,7,0,0,1,.66-1.48.54.54,0,0,0,.1-.3.6.6,0,0,0-.26-.48A.71.71,0,0,0,179.13,57.45Z"/><path class="cls-5" d="M103.7,59.39c0,.06-.07.32-.31,1.23l-.31,1.2s-.14.52-.36,1.39-.4,1.44-.43,1.57a5.27,5.27,0,0,0-.09,1l0,.06a1.17,1.17,0,0,0,.75.83h0l0,0a.63.63,0,0,0,.39-.36l.06-.13,0,0,0-.09a1.74,1.74,0,0,0,.08-.53.6.6,0,0,0-.22-.43.58.58,0,0,1,.07-.3l0-.06v-.06a9.87,9.87,0,0,1,.38-1.56c.16-.55.32-1.11.49-1.68.31-1.21.58-2.28.82-3.23a12.14,12.14,0,0,1,2-.52l.17,0v-.18a.67.67,0,0,0,0-.21l0,0a.3.3,0,0,0,0-.1V57l-.09-.06a1.36,1.36,0,0,0-.69-.22,2.58,2.58,0,0,0-.62.11,2.75,2.75,0,0,1-.27.07c.37-1,.86-2.2,1.43-3.46h0c-.1.37-.19.67-.26.9l0,.15.14.08.06,0,0,.07a.57.57,0,0,0,.67.23.69.69,0,0,0,.38-.59v-.06a.11.11,0,0,1,0,0l.11-.06V54l.07-.14a.76.76,0,0,0,0-.48l0,0-.08-.12a1.57,1.57,0,0,0,.21-.83,2.6,2.6,0,0,0-.09-.65l0-.06a.83.83,0,0,0-.67-.46.79.79,0,0,0-.58.23c-.23.21-.48.44-.74.7l0,0a17.72,17.72,0,0,0-1,2.34c-.52,1.43-.81,2.21-.87,2.33l0,0v.06a.32.32,0,0,1,0,.17.25.25,0,0,1-.17.06l-.62,0a1,1,0,0,0-.44.12l-.1.06,0,.58c.1.44.39.5.54.5a.91.91,0,0,0,.33,0l-.11.6A.62.62,0,0,0,103.7,59.39Z"/><path class="cls-5" d="M137.21,57.76l-.05,0a2.37,2.37,0,0,0-1-.05h-.09l0,.07a.58.58,0,0,0-.14.27c-.32.29-.43.3-.43.3h-.08a1.42,1.42,0,0,0-.94.61,2,2,0,0,0-.57.62,4.26,4.26,0,0,1-.4.61l0,.06c-.22.58-.4,1-.52,1.31a5.39,5.39,0,0,0-.36,1.45v.06a2.14,2.14,0,0,0,1.11,1.63l.06,0a3.56,3.56,0,0,0,.47.05h.23a2.49,2.49,0,0,0,1.89-1,7.91,7.91,0,0,0,.9-.92,1.35,1.35,0,0,0,.22-.44.41.41,0,0,1,.17-.22l.08,0,0-.09a10.7,10.7,0,0,0,.34-1.37,4.68,4.68,0,0,0,.05-.74A2.43,2.43,0,0,0,137.21,57.76Zm-3,5.78a.73.73,0,0,1-.4-.12,2.8,2.8,0,0,1,0-.4,3,3,0,0,1,.18-1,8.82,8.82,0,0,1,.57-1.33,4.87,4.87,0,0,0,.48-.5,1.25,1.25,0,0,1,.17-.2c.1.36.27.52.54.51a.87.87,0,0,0,.3-.14,1,1,0,0,0,.29-.74c0-.28,0-.5,0-.65v-.06l-.06-.07.53-.2a.57.57,0,0,1,.23.42c0,.28.08.6.11,1A4.37,4.37,0,0,1,134.25,63.54Z"/><path class="cls-5" d="M40.09,57.76l-.05,0a2.37,2.37,0,0,0-1-.05H39l0,.07a.58.58,0,0,0-.14.27c-.32.3-.43.3-.43.3h-.08a1.37,1.37,0,0,0-.93.61,2,2,0,0,0-.58.62,4.26,4.26,0,0,1-.4.61l0,.06c-.22.58-.4,1-.52,1.31A5.39,5.39,0,0,0,35.45,63v.06a2.14,2.14,0,0,0,1.11,1.63l0,0a3.91,3.91,0,0,0,.48.05h.23a2.49,2.49,0,0,0,1.89-1,7.14,7.14,0,0,0,.9-.92,1.35,1.35,0,0,0,.22-.44.41.41,0,0,1,.17-.22l.08,0,0-.09A10.7,10.7,0,0,0,41,60.63a4.84,4.84,0,0,0,0-.74A2.43,2.43,0,0,0,40.09,57.76Zm-3,5.78a.73.73,0,0,1-.4-.12,2.8,2.8,0,0,1,0-.4,3,3,0,0,1,.18-1,6.74,6.74,0,0,1,.36-.87l.21-.46a3.94,3.94,0,0,0,.48-.5,1.25,1.25,0,0,1,.17-.2c.1.36.27.52.54.51a.87.87,0,0,0,.3-.14,1,1,0,0,0,.29-.74c0-.28,0-.5,0-.65v-.06l-.06-.07.53-.2a.57.57,0,0,1,.23.42c0,.28.08.6.11,1A4.37,4.37,0,0,1,37.13,63.54Z"/><path class="cls-5" d="M31.68,60.81a4.25,4.25,0,0,1,.47-1l0-.07a1.08,1.08,0,0,1,.32-.45c.24-.22.4-.36.47-.44l.05,0a.43.43,0,0,0,.67-.09.48.48,0,0,0,.06-.42,1.19,1.19,0,0,0-1-.84h-.07l-.07,0c-1.2.67-2,2.14-2.5,4.4a2.34,2.34,0,0,0,.9,2.14,2.63,2.63,0,0,0,1.1.24,2.87,2.87,0,0,0,1.9-.69,5.17,5.17,0,0,0,.46-.41,1,1,0,0,0,.38-.78v-.15l-.14,0a.56.56,0,0,0-.58.09,6.33,6.33,0,0,1-2.13.85.62.62,0,0,1-.64-.52v-1a1.77,1.77,0,0,1,.31-.88Z"/><path class="cls-5" d="M15.61,70.06l-.42.41.58-.06a4.58,4.58,0,0,0,.66-.1,1.57,1.57,0,0,0,.45-.34c.43-.42.74-.72.95-.94a29,29,0,0,0,1.71-2.85c.06-.1.23-.5,1.05-2.8.6-1.69,1-2.8,1.28-3.31a6.21,6.21,0,0,0,.54-1.48l0-.11-.28-.26a.49.49,0,0,0-.38-.19h-.06l-.52.26-.07,0,0,.08c-.67,2.1-1.19,3.58-1.56,4.43a2.73,2.73,0,0,1-1-1.82c-.17-.82-.31-1.63-.4-2.42a1.28,1.28,0,0,0-.27-.64.71.71,0,0,0-.55-.36A.33.33,0,0,0,17,58a3.12,3.12,0,0,0,0,.37h0v0h0c.17,1.17.27,2,.3,2.48a4.33,4.33,0,0,0,1.36,2.73.48.48,0,0,1,.2.25,1.94,1.94,0,0,1,0,.2,16.47,16.47,0,0,1-1.27,3.13A11.08,11.08,0,0,1,15.61,70.06Z"/><path class="cls-5" d="M12.66,62.58a3.58,3.58,0,0,1-2.06.82.32.32,0,0,1-.27-.11,1.93,1.93,0,0,0-.73-.41l-.29-.07,0,.3a1.37,1.37,0,0,0,1.47,1.32,2.72,2.72,0,0,0,1.09-.22,4.87,4.87,0,0,0,2.55-2,5.53,5.53,0,0,0,1.11-3.41,1.64,1.64,0,0,0-.93-1.61l-.06,0a1.93,1.93,0,0,0-2.06,1.06,2.51,2.51,0,0,0-.25.23l.1-.24L12.72,57a9.59,9.59,0,0,0,.35-.91v-.06a2.85,2.85,0,0,1,.14-.63,1.8,1.8,0,0,0,.12-.82l0-.06a.57.57,0,0,0-.52-.33.78.78,0,0,0-.46.16l-.06.05,0,.07a58.22,58.22,0,0,1-2.23,7l0,.14a.78.78,0,0,0,0,.14,1,1,0,0,0,.12.59.55.55,0,0,0,.6.21h.06l0,0a2.22,2.22,0,0,0,.41-.41,4.8,4.8,0,0,0,.46-.67.57.57,0,0,0,.15-.21l.09,0,.14-.4v-.07a13.09,13.09,0,0,1,1-1.47,2.6,2.6,0,0,1,.8-.92.49.49,0,0,1,.4-.12.71.71,0,0,0,.15.26,1.35,1.35,0,0,1,.09.5A5.62,5.62,0,0,1,14,60.72,4.33,4.33,0,0,1,12.66,62.58Z"/><path class="cls-5" d="M83.64,56.4h.29l0-.14a1.1,1.1,0,0,1,0-.11l.06,0a.6.6,0,0,0,.2-.49l0-.08a1,1,0,0,0-.44-.45l-.08,0-.07,0a.41.41,0,0,1-.18,0,1.91,1.91,0,0,0-.56,0,.57.57,0,0,0-.35.62c0,.3.24.65,1,.65h.09Z"/><path class="cls-5" d="M89.13,70.06l-.42.41.58-.06a4.26,4.26,0,0,0,.66-.1A1.57,1.57,0,0,0,90.4,70l1-.94a31.12,31.12,0,0,0,1.7-2.85c.06-.1.23-.5,1-2.8.6-1.69,1-2.8,1.28-3.31a6.21,6.21,0,0,0,.54-1.48l0-.11-.28-.26a.49.49,0,0,0-.38-.19h-.06l-.52.26-.07,0,0,.08c-.67,2.1-1.19,3.58-1.56,4.43a2.73,2.73,0,0,1-1-1.82c-.17-.82-.3-1.63-.4-2.42a1.2,1.2,0,0,0-.27-.64.71.71,0,0,0-.55-.36.32.32,0,0,0-.34.36,3.12,3.12,0,0,0,0,.37h0v0h0c.17,1.17.27,2,.3,2.48a4.33,4.33,0,0,0,1.36,2.73.48.48,0,0,1,.2.25,1.94,1.94,0,0,1,0,.2,15.83,15.83,0,0,1-1.27,3.13A11.08,11.08,0,0,1,89.13,70.06Z"/><path class="cls-5" d="M89.74,54.52l0-.05c-.19-.32-.41-.48-.63-.48a.58.58,0,0,0-.51.29l0,.07a14.52,14.52,0,0,1-1.25,3.38c-.26,0-.52.09-.8.12a1.9,1.9,0,0,0-.87.39c-.35.21-.54.41-.58.62v0l0,0c.16.55.43.8.77.79h.09l0-.07a1.5,1.5,0,0,1,.76-.55,5.58,5.58,0,0,1-.35.83,7,7,0,0,0-.58,2.73,2.9,2.9,0,0,0,.43,1.52,1.28,1.28,0,0,0,1,.41,1.3,1.3,0,0,0,.37,0,2.55,2.55,0,0,0,2-1.6l.09-.28-.29,0a2.08,2.08,0,0,0-1,.35,1.79,1.79,0,0,1-.67.3,1.58,1.58,0,0,1-.43.07c-.09,0-.2,0-.22-.07A1.25,1.25,0,0,1,87,63a8.64,8.64,0,0,1,1.19-4.05,2.26,2.26,0,0,1,.71,0,9.11,9.11,0,0,0,1.18,0h.2l0-.66-.06-.06a1.81,1.81,0,0,0-.9-.43l-.52-.06a7.28,7.28,0,0,0,1-3.09Z"/><path class="cls-5" d="M42.16,64v.11l.09.07a.73.73,0,0,0,.42.14l.21,0,.1,0a.31.31,0,0,0,.22-.12l.08.16.18-.35a4.35,4.35,0,0,1,1-1.26,10.39,10.39,0,0,0,1.28-1.42,8.11,8.11,0,0,0,1-1.11,6.91,6.91,0,0,1,.63-.74c0,.07,0,.17,0,.31s0,.31,0,.39a1.63,1.63,0,0,1-.09.45A13.27,13.27,0,0,0,47,61.92a11.73,11.73,0,0,0-.14,1.34s0,.08-.06.39a1.22,1.22,0,0,0,0,.47l0,.12.12,0c.28.06.65-.12,1.13-.54a6.38,6.38,0,0,0,.74-.82c.72-.89,1.28-1.58,1.66-2.07.2-.21.47-.53.85-1a2.71,2.71,0,0,1,.36-.4c-.09.3-.21.67-.35,1.1a18.54,18.54,0,0,0-.52,1.9c0,.16,0,.39,0,.68s0,.55,0,.72a1.76,1.76,0,0,0,.56,1.4l.09.08.11,0,.35-.14h.06l.05,0a.69.69,0,0,0,.31-.52l0-.15-.14-.06L52,64.28a17.81,17.81,0,0,1,.38-2.8c0-.11.13-.47.54-1.63a4.53,4.53,0,0,0,.27-1.8v0a.64.64,0,0,0-.63-.47h0l-.05,0a8.35,8.35,0,0,0-.94.59l-1.07,1a9.7,9.7,0,0,0-1.3,1.66A12.47,12.47,0,0,1,48.18,62c.2-.8.36-1.42.49-1.84v-.08a3,3,0,0,1,0-.57c0-.33,0-.55,0-.64A1.13,1.13,0,0,0,48,57.68l-.1,0-.09.06a11.22,11.22,0,0,0-2.2,2c-.63.73-1.15,1.33-1.55,1.81,0-.08,0-.15,0-.24a4.7,4.7,0,0,0,.14-.83,3.77,3.77,0,0,0,.36-1.52,1.84,1.84,0,0,0-.28-1.08l0,0,0,0a.93.93,0,0,0-1.06.12l-.11.09,0,.13a2.89,2.89,0,0,1,.21.88,12.07,12.07,0,0,1-.6,2.46A14.13,14.13,0,0,0,42.16,64Z"/><path class="cls-5" d="M82,57.45l0,0a14.35,14.35,0,0,0-.56,1.36,14.57,14.57,0,0,0-.63,4.24,6.28,6.28,0,0,0,0,.75v0l0,.05a1.44,1.44,0,0,0,1,.68h0a2.66,2.66,0,0,0,1.23-.49l.06,0c.27-.37.46-.64.59-.85a3,3,0,0,0,.79-1.54l.28-.91L83.75,62a2.8,2.8,0,0,0-.77.63,4.14,4.14,0,0,1-.61.58,1.51,1.51,0,0,0-.27.21l0,0c0-.07-.06-.11-.07-.09a5.87,5.87,0,0,1,.06-1.62l.44-2.08a7,7,0,0,1,.66-1.48.54.54,0,0,0,.1-.3.6.6,0,0,0-.26-.48A.71.71,0,0,0,82,57.45Z"/><path class="cls-5" d="M54.44,64v.11l.1.07a.71.71,0,0,0,.42.14l.21,0,.09,0c.07,0,.12,0,.22-.12l.08.16.18-.35a4.53,4.53,0,0,1,1-1.26A9.2,9.2,0,0,0,58,61.34a8,8,0,0,0,1-1.11,4.67,4.67,0,0,1,.63-.74c0,.07,0,.17,0,.31a3.21,3.21,0,0,1,0,.39,1.63,1.63,0,0,1-.09.45c-.19.63-.31,1-.35,1.28-.09.7-.14,1.14-.14,1.34,0,0,0,.09-.06.39a1,1,0,0,0,0,.47l0,.12.12,0c.29.06.65-.12,1.13-.54a5,5,0,0,0,.74-.82c.73-.89,1.29-1.58,1.67-2.07.19-.21.47-.54.84-1a2.79,2.79,0,0,1,.37-.4c-.1.3-.21.67-.36,1.1a17.5,17.5,0,0,0-.51,1.9c0,.16,0,.39,0,.68s0,.55,0,.72a1.75,1.75,0,0,0,.55,1.4l.09.08.12,0,.35-.14h.06l0,0a.74.74,0,0,0,.31-.52l0-.15-.14-.06-.17-.07a17,17,0,0,1,.39-2.8,14.16,14.16,0,0,1,.53-1.63,4.53,4.53,0,0,0,.28-1.8v0a.65.65,0,0,0-.64-.47h0l0,0a9.42,9.42,0,0,0-.94.59l-1.07,1a9.7,9.7,0,0,0-1.3,1.66,14.46,14.46,0,0,1-.9,1.22c.19-.8.36-1.42.48-1.84l0,0v0a4.11,4.11,0,0,1,0-.57c0-.33,0-.55,0-.64a1.13,1.13,0,0,0-.71-1.18l-.1,0-.08.06a10.69,10.69,0,0,0-2.2,2c-.64.73-1.16,1.33-1.55,1.81a2.4,2.4,0,0,1,0-.24,4.7,4.7,0,0,0,.14-.83,3.77,3.77,0,0,0,.36-1.52,1.94,1.94,0,0,0-.27-1.08l0,0,0,0a.93.93,0,0,0-1.06.12l-.1.09.05.13a3.63,3.63,0,0,1,.21.88,12.07,12.07,0,0,1-.6,2.46A13.48,13.48,0,0,0,54.44,64Z"/><path class="cls-5" d="M75.9,58.23a.62.62,0,0,0-1,0l0,0v.06a16.21,16.21,0,0,1-.48,2.31q-.41,1.44-.63,2.31A1,1,0,0,0,74,64l0,0a1.13,1.13,0,0,0,.89-.08l.06,0a13.06,13.06,0,0,0,1.67-2.13,10.65,10.65,0,0,1,1.29-1.64l-.18.9a8.13,8.13,0,0,0-.19,1.51,3.37,3.37,0,0,0,.41,1.7l0,0a1,1,0,0,0,.63.23,1.32,1.32,0,0,0,.42-.07l.27-.08-.16-.22a2.53,2.53,0,0,1-.43-1.45,6.67,6.67,0,0,1,.16-1.27c.08-.43.17-.87.27-1.35a2.19,2.19,0,0,1,0-.41l0-.12a2,2,0,0,0,0-.36.8.8,0,0,0-.87-.91h-.06l0,0a7.82,7.82,0,0,0-1.72,1.54c-.19.22-.57.73-1.15,1.54l.63-2.59A.7.7,0,0,0,75.9,58.23Z"/><path class="cls-6" d="M79.33,17.62a6.32,6.32,0,0,0-6.51,6.48,6.3,6.3,0,0,0,6.51,6.45,7.27,7.27,0,0,0,5.46-2.24V32.7a9.14,9.14,0,0,1-6,2A10.33,10.33,0,0,1,68.43,24.1,10.34,10.34,0,0,1,78.78,13.49a9.13,9.13,0,0,1,6,2v4.38a7.26,7.26,0,0,0-5.46-2.26Z"/><path class="cls-6" d="M102.81,27.24c0-4.29-2.85-7.88-7.5-7.88a7.32,7.32,0,0,0-7.5,7.58,7.55,7.55,0,0,0,7.76,7.76,6.89,6.89,0,0,0,7-5l-3.88-.41a3.65,3.65,0,0,1-3.06,1.51c-2.31,0-3.23-1.25-3.32-2.42h10.53ZM92.28,25.37c.09-1.14,1.25-2.1,3-2.1s2.93,1,3,2.1Z"/><rect class="cls-5" x="105.37" y="12.59" width="4.54" height="21.66"/><path class="cls-6" d="M118.13,27.79a2.59,2.59,0,0,0,2.78,2.76c1.51,0,2.24-.76,2.24-1.63,0-1.25-1.25-1.83-3.43-3.14-4.46-2.7-5.46-4.33-5.46-6.86,0-3.22,2.67-5.43,6.14-5.43,3.92,0,6.42,3,6.45,6.8h-4.29c0-1.74-.91-2.67-2.16-2.67-1,0-1.85.58-1.85,1.51,0,1.13.8,1.63,2.76,2.76,4,2.32,6.16,4.1,6.16,7.2,0,3.64-3.07,5.61-6.56,5.61a6.79,6.79,0,0,1-7.07-6.91Z"/><polygon class="cls-6" points="155.48 19.36 150.04 34.25 145.37 34.25 142.3 25.92 139.27 34.25 134.57 34.25 129.13 19.36 133.91 19.36 136.92 28.63 139.92 19.36 144.71 19.36 147.69 28.63 150.69 19.36 155.48 19.36"/><path class="cls-6" d="M168.46,19.65l-.26,2.28a5.19,5.19,0,0,0-4.77-2.57c-4.21,0-7.2,3.44-7.2,7.67s3,7.67,7.2,7.67a5.2,5.2,0,0,0,4.77-2.56l.26,2.27h4.13V19.65Zm-4.27,10.88a3.52,3.52,0,1,1,3.49-3.5A3.4,3.4,0,0,1,164.19,30.53Z"/><path class="cls-6" d="M185.25,19.36a5.24,5.24,0,0,0-4.8,2.55l-.26-2.26h-4.12V41h4.38V32.08a5.24,5.24,0,0,0,4.8,2.55c4.21,0,7.18-3.42,7.18-7.63S189.46,19.36,185.25,19.36Zm-.79,11.12a3.5,3.5,0,0,1,0-7,3.5,3.5,0,1,1,0,7Z"/><path class="cls-7" d="M51.82,12.47a5.44,5.44,0,1,0,5.44,5.44A5.45,5.45,0,0,0,51.82,12.47Zm0,7.68a2.24,2.24,0,1,1,2.24-2.24A2.24,2.24,0,0,1,51.82,20.15Z"/></svg>